<svg width="24" height="24" viewBox="0 0 24 24" fill="none" xmlns="http://www.w3.org/2000/svg">
<g clip-path="url(#clip0_50_8)">
<path d="M19.5353 9.14775C18.1643 9.14775 17.4023 10.164 17.2425 11.2657H21.8528C21.7275 10.215 20.985 9.1515 19.536 9.1515L19.5353 9.14775ZM17.277 12.7702C17.5118 13.926 18.4688 14.7382 19.809 14.7382C20.5313 14.7382 21.5783 14.469 22.191 13.824L23.367 15.1762C22.305 16.2855 20.715 16.602 19.629 16.602C16.9883 16.602 14.9303 14.6947 14.9303 11.9917C14.9303 9.4605 16.824 7.37475 19.5 7.37475C22.086 7.37475 24 9.35475 24 11.9767V12.7417H17.277V12.7702ZM10.7888 16.5982V10.9065C10.7888 9.9345 10.3545 9.37125 9.44853 9.37125C8.63628 9.37125 8.09778 9.957 7.73328 10.3792V16.617H5.38204V10.9177C5.38204 9.9405 4.96804 9.387 4.06504 9.387C3.25279 9.387 2.69029 9.97275 2.34679 10.395V16.6327H-0.00146484V7.5075H2.35054V8.65575C2.74879 8.1945 3.65029 7.398 5.05729 7.398C6.30754 7.398 7.15428 7.92225 7.53303 8.988C8.06028 8.22675 9.03303 7.398 10.443 7.398C12.1463 7.398 13.1348 8.406 13.1348 10.359V16.602H10.7828L10.7865 16.5937L10.7888 16.5982Z" fill="black"/>
</g>
<defs>
<clipPath id="clip0_50_8">
<rect width="24" height="24" fill="white"/>
</clipPath>
</defs>
</svg>
