<svg width="24" height="24" viewBox="0 0 24 24" fill="none" xmlns="http://www.w3.org/2000/svg">
<path d="M10 7H14V5.615C14 5.43567 13.9423 5.28834 13.827 5.173C13.7117 5.05767 13.5643 5 13.385 5H10.615C10.4357 5 10.2883 5.05767 10.173 5.173C10.0577 5.28834 10 5.43567 10 5.615V7ZM18 22C16.886 22 15.941 21.612 15.165 20.836C14.3883 20.0587 14 19.1133 14 18C14 16.8867 14.3883 15.9417 15.165 15.165C15.9417 14.3883 16.8867 14 18 14C19.1133 14 20.0587 14.3883 20.836 15.165C21.6133 15.9417 22.0013 16.8867 22 18C21.9987 19.1133 21.6107 20.0587 20.836 20.836C20.0613 21.6133 19.116 22.0013 18 22ZM4.615 20C4.155 20 3.77067 19.846 3.462 19.538C3.15334 19.23 2.99934 18.8453 3 18.384V8.616C3 8.15534 3.15434 7.771 3.463 7.463C3.77167 7.155 4.15567 7.00067 4.615 7H9V5.615C9 5.155 9.15434 4.77067 9.463 4.462C9.77167 4.15334 10.156 3.99934 10.616 4H13.385C13.845 4 14.2293 4.154 14.538 4.462C14.8467 4.77 15.0007 5.15434 15 5.615V7H19.385C19.845 7 20.229 7.15434 20.537 7.463C20.845 7.77167 20.9993 8.156 21 8.616V12.814C20.5447 12.538 20.062 12.3333 19.552 12.2C19.042 12.0667 18.5247 12 18 12C16.336 12 14.92 12.584 13.752 13.752C12.584 14.92 12 16.336 12 18C12 18.3373 12.0287 18.6737 12.086 19.009C12.1433 19.3443 12.2307 19.6747 12.348 20H4.615ZM18 20.423C18.1333 20.423 18.2433 20.3797 18.33 20.293C18.4167 20.2063 18.4607 20.096 18.462 19.962C18.4633 19.828 18.4197 19.7177 18.331 19.631C18.2423 19.5443 18.132 19.5007 18 19.5C17.868 19.4993 17.758 19.5427 17.67 19.63C17.582 19.7173 17.538 19.828 17.538 19.962C17.538 20.096 17.5817 20.206 17.669 20.292C17.7563 20.378 17.8667 20.4217 18 20.423ZM17.615 18.577H18.385V15.577H17.615V18.577Z" fill="black"/>
</svg>
